<?xml version="1.0" encoding="utf-8"?>
<!-- Generator: Adobe Illustrator 26.5.0, SVG Export Plug-In . SVG Version: 6.00 Build 0)  -->
<svg version="1.1" id="a" xmlns="http://www.w3.org/2000/svg" xmlns:xlink="http://www.w3.org/1999/xlink" x="0px" y="0px"
	 viewBox="0 0 40 40" style="enable-background:new 0 0 40 40;" xml:space="preserve">
<style type="text/css">
	.st0{fill:none;}
	.st1{fill:#25D366;}
</style>
<g id="b" transform="translate(-3.154)">
	<circle id="c" class="st0" cx="23.2" cy="20" r="14.8"/>
	<path id="d" class="st1" d="M10.5,27c-1.3-2.2-1.9-4.7-1.9-7.3c0-8,6.5-14.5,14.6-14.5c3.9,0,7.6,1.5,10.3,4.3
		c2.7,2.7,4.3,6.4,4.3,10.3c0,8-6.5,14.5-14.6,14.5l0,0c-2.4,0-4.8-0.6-7-1.8l-7.7,2L10.5,27L10.5,27z M16.9,30.2
		c1.9,1.1,4,1.7,6.2,1.7l0,0c6.7,0,12.1-5.4,12.1-12.1c0-3.2-1.3-6.3-3.6-8.5c-2.3-2.3-5.4-3.5-8.6-3.5C16.4,7.7,11,13.1,11,19.8
		c0,2.3,0.6,4.5,1.9,6.4l0.3,0.5l-1.2,4.5l4.6-1.2C16.5,29.9,16.9,30.2,16.9,30.2z M25.5,26.5c-0.7-0.2-1.4-0.5-2.1-0.8
		c-2.5-1.3-4.7-3.1-6.2-5.5c-0.9-1.1-1.4-2.4-1.5-3.8c0-1.1,0.4-2.2,1.3-3c0.2-0.3,0.6-0.4,1-0.5c0.2,0,0.5,0,0.7,0h0.1
		c0.2,0,0.5,0,0.7,0.6c0.3,0.7,1,2.5,1.1,2.7c0.1,0.2,0.1,0.4,0,0.6c-0.1,0.2-0.2,0.4-0.4,0.6c-0.2,0.2-0.4,0.5-0.6,0.6
		c-0.2,0.2-0.4,0.4-0.2,0.7c0.6,0.9,1.2,1.8,2,2.5c0.9,0.8,1.9,1.4,2.9,1.8c0.4,0.2,0.6,0.2,0.8-0.1c0.2-0.2,0.9-1.1,1.1-1.4
		c0.2-0.4,0.5-0.3,0.8-0.2s2.1,1,2.5,1.2s0.6,0.3,0.7,0.4c0.1,0.6,0,1.2-0.2,1.7c-0.5,0.9-1.4,1.5-2.5,1.7c-0.3,0-0.6,0.1-0.9,0.1
		C26.4,26.8,25.9,26.7,25.5,26.5L25.5,26.5L25.5,26.5z"/>
</g>
</svg>
