<?xml version="1.0" encoding="UTF-8"?><svg id="_100anos" xmlns="http://www.w3.org/2000/svg" xmlns:xlink="http://www.w3.org/1999/xlink" viewBox="0 0 701.99 335.18"><defs><style>.cls-1{fill:url(#linear-gradient-2);}.cls-2{fill:url(#linear-gradient);}</style><linearGradient id="linear-gradient" x1="-162.52" y1="-49.36" x2="710.36" y2="370.73" gradientUnits="userSpaceOnUse"><stop offset="0" stop-color="#7c7c7b"/><stop offset=".5" stop-color="#acacac"/><stop offset="1" stop-color="#dadada"/></linearGradient><linearGradient id="linear-gradient-2" x1="117.72" y1="160.83" x2="353.07" y2="160.83" gradientUnits="userSpaceOnUse"><stop offset="0" stop-color="#477ec0"/><stop offset=".07" stop-color="#4781b6"/><stop offset=".18" stop-color="#498a9c"/><stop offset=".32" stop-color="#4d9871"/><stop offset=".49" stop-color="#51ac37"/><stop offset=".5" stop-color="#52ae32"/><stop offset=".59" stop-color="#79b826"/><stop offset=".73" stop-color="#afc615"/><stop offset=".85" stop-color="#d7d00a"/><stop offset=".94" stop-color="#f0d602"/><stop offset="1" stop-color="#f9d900"/></linearGradient></defs><path class="cls-2" d="M688.85,103.09c-8.42-19.9-20.46-37.76-35.8-53.1-15.34-15.34-33.2-27.38-53.1-35.8-20.61-8.72-42.49-13.14-65.03-13.14s-44.43,4.42-65.03,13.14c-19.9,8.41-37.76,20.46-53.1,35.8-13.33,13.33-24.17,28.57-32.3,45.39-.02-.05-.05-.1-.07-.15-1.24,2.57-2.43,5.18-3.55,7.82-3.81,9.01-7.46,20.1-9.73,31.28-.49,2.4-2.26,11.12-2.94,21.23-.84,12.41-.65,26.91-1.81,34.32-2.22,14.17-7.23,26.76-8.78,30.42-6.75,15.96-16.42,30.31-28.74,42.63-12.32,12.32-26.66,21.99-42.62,28.74-16.52,6.99-34.08,10.53-52.19,10.53s-35.67-3.54-52.19-10.53c-15.96-6.75-30.31-16.42-42.62-28.74-12.32-12.32-21.99-26.66-28.74-42.63-6.45-15.25-10.15-31.49-10.47-48.04S99.44,0,99.44,0L0,50.78v281.69s99.53,0,99.53,0v-27.33c-.42-.41-.84-.82-1.25-1.24-12.54-12.54-23.16-26.54-31.73-41.81v37.4h-33.57V70.97s33.66-17.19,33.66-17.19c0,0,.37,113.9.37,114.34,0,22.55,4.42,44.43,13.14,65.03,8.41,19.9,20.46,37.76,35.8,53.1,15.34,15.34,33.2,27.38,53.1,35.8,20.61,8.72,42.49,13.14,65.03,13.14s44.43-4.42,65.03-13.14c19.9-8.41,37.76-20.46,53.1-35.8,13.33-13.33,24.17-28.57,32.3-45.39.02.05.05.1.07.15,1.25-2.57,2.38-5.2,3.55-7.82,2.14-4.81,8.12-20.38,10.81-37.08.35-2.15,1.62-11,2.13-19.71.49-8.56.38-15.77.75-24.39.66-15.27,6.69-29.24,9.58-36.08,6.75-15.96,16.42-30.31,28.74-42.63s26.66-21.99,42.62-28.74c16.52-6.99,34.08-10.53,52.19-10.53s35.67,3.54,52.19,10.53c15.96,6.75,30.31,16.42,42.62,28.74s21.99,26.66,28.74,42.63c6.99,16.52,10.53,34.08,10.53,52.19s-3.54,35.67-10.53,52.19c-6.75,15.96-16.42,30.31-28.74,42.63-12.32,12.32-26.66,21.99-42.62,28.74-16.52,6.99-34.08,10.53-52.19,10.53s-35.67-3.54-52.19-10.53c-15.96-6.75-30.31-16.42-42.62-28.74-9.78-9.78-17.89-20.83-24.19-32.96-1.48,4.35-3.12,8.65-4.92,12.9-3.36,7.95-7.23,15.62-11.59,22.99,5.21,7.21,11.01,14.02,17.38,20.39,15.34,15.34,33.2,27.38,53.1,35.8,20.61,8.72,42.49,13.14,65.03,13.14s44.43-4.42,65.03-13.14c19.9-8.41,37.76-20.46,53.1-35.8,15.34-15.34,27.38-33.2,35.8-53.1,8.72-20.61,13.14-42.49,13.14-65.03s-4.42-44.43-13.14-65.03ZM181.88,44.57c16.52-6.99,34.08-10.53,52.19-10.53s35.67,3.54,52.19,10.53c15.96,6.75,30.31,16.42,42.62,28.74,9.78,9.78,17.89,20.83,24.19,32.96,1.48-4.35,3.12-8.65,4.92-12.9,3.36-7.95,7.23-15.62,11.59-22.99-5.21-7.21-11.01-14.02-17.38-20.39-15.34-15.34-33.2-27.38-53.1-35.8-20.61-8.72-42.49-13.14-65.03-13.14s-44.43,4.42-65.03,13.14c-16.21,6.85-31.06,16.12-44.31,27.61v48.67c4.33-6.08,9.18-11.81,14.53-17.16,12.32-12.32,26.66-21.99,42.62-28.74ZM601.85,179.55h-10.59l-.24,1.41c-2,10.23,5.53,19.65,20.23,19.65,12.23,0,19.76-4.94,21.76-13.88,2.94-12.59-5.76-18.71-15.53-23.06-7.88-3.41-9.41-6.71-8.59-10.47,1.18-4.59,4.94-6.47,10.12-6.47,7.06.12,10.35,4.35,9.06,10l-.24,1.29h10.35l.24-1.06c2.35-10.71-5.76-19.06-18.35-19.06s-19.41,4.82-21.65,14.23c-2.59,10.71,3.65,16.82,12.82,20.7,9.06,4.23,12.35,7.53,11.18,12.47-1.06,4.24-4.94,6.35-10.23,6.35-7.88-.12-11.76-4.94-10.59-10.71l.24-1.41ZM572.68,137.78c-14.82,0-24,8.47-26.82,22.7l-3.41,16.23c-2.94,14.12,4.47,24,18.82,24s23.88-8.47,26.82-22.7l3.41-16.35c2.82-14.12-4.47-23.88-18.82-23.88ZM580.56,160.84l-3.65,16.94c-1.65,8-7.18,12.94-14.47,12.94s-10.82-5.06-9.18-13.18l3.65-16.94c1.76-8,7.29-12.94,14.59-12.94s10.71,5.06,9.06,13.18ZM499.62,138.96l-12.82,60.47h11.06l7.65-36.12c2.12-9.76,7.88-15.53,14.94-15.53,6.59,0,9.41,4.82,7.65,12.71l-8.23,38.94h11.06l8.71-40.59c2.82-13.29-3.88-21.06-13.76-21.06-8.35,0-14.23,4.24-17.76,12.12h-.24l2.24-10.94h-10.47ZM474.44,164.25h-12.12c-14.23,0-22.23,6.35-24.47,17.29-2.24,10.71,4,19.18,13.65,19.18,8.59,0,13.76-3.88,17.76-11.41h.47l-2.24,10.12h10.59l8.59-40.47c2.71-12.59-5.29-21.18-18.12-21.18-13.76,0-20.94,7.53-23.18,18.23l-.47,2.24h10.59l.35-2.24c1.18-5.18,5.53-8.82,11.88-8.82,6,0,9.65,3.41,8.23,10.23l-1.53,6.82ZM472.21,174.96c-1.88,9.29-9.18,16.47-16.59,16.47-5.41,0-8-3.76-6.71-9.76,1.18-5.65,5.29-9.53,12.71-9.53h11.18l-.59,2.82Z"/><path class="cls-1" d="M308.33,153.15c-21.07-8.38-43.74-15.11-67.4-20.03-42.72-8.87-80.84-12.79-113.28-11.63-1.28.05-2.52.1-3.73.16-1.14,2.71-6.2,13.9-6.2,24.52,0,0,6.8-.48,10.78-.62,38.01-1.35,79.45,5.31,107.53,11.14,22.02,4.57,43.11,10.81,62.68,18.54,15.64,6.18,30.36,13.32,43.73,21.22,2.24,1.33,4.37,2.63,6.39,3.9,2.34-8.31,3.75-16.86,4.24-25.58-13.8-8.04-28.83-15.31-44.74-21.63Z"/></svg>